<svg width="801" height="1130" viewBox="0 0 801 1130" fill="none" xmlns="http://www.w3.org/2000/svg">
    <path d="M60.4182 58.2739C84.0096 22.2971 117.16 2.6924 150.507 0.869029C183.845 -0.953862 217.465 14.9899 242.027 50.2854C245.955 55.9301 250.606 61.1788 255.392 66.5808C256.46 67.7868 257.535 69.0004 258.611 70.2277C264.513 76.964 270.445 84.1367 275.407 92.8105C285.317 110.134 291.398 133.516 285.444 171.422C276.635 227.5 282.845 307.387 299.219 384.953C315.593 462.516 342.148 537.843 374.087 584.781C427.374 663.093 512.307 698.853 592.276 732.522C603.221 737.13 614.073 741.699 624.738 746.332C669.063 765.59 710.161 785.956 741.415 814.855C772.65 843.736 794.067 881.15 799.002 934.546C805.925 1009.44 779.779 1061.94 735.815 1093.41C691.823 1124.91 629.916 1135.39 565.251 1126.08C435.916 1107.46 295.813 1009.66 266.492 842.913C260.577 809.271 241.148 781.026 215.769 756.089C190.394 731.154 159.031 709.49 129.197 689.025L127.335 687.748C98.1672 667.743 70.6352 648.861 51.6879 629.115C32.3457 608.957 22.0458 588.002 27.9852 564.121C39.6335 517.285 28.0725 463.337 16.6873 410.209C16.3103 408.45 15.9335 406.692 15.5578 404.935C9.6909 377.5 4.07343 350.346 1.90185 324.518C-0.269593 298.691 1.00827 274.227 8.90819 252.168C27.1076 201.352 30.7017 168.828 33.6386 142.251C33.8114 140.687 33.982 139.143 34.1531 137.618C37.2278 110.211 40.4813 88.6776 60.4182 58.2739Z" stroke="black"/>
    <path d="M248.003 142.543C246.236 157.696 238.54 172.958 227.902 185.939C217.265 198.919 203.716 209.579 190.297 215.543C175.003 222.34 151.557 228.329 128.939 230.495C117.632 231.577 106.549 231.702 96.8061 230.501C87.0555 229.299 78.6929 226.774 72.789 222.592C69.134 220.003 65.9781 215.733 63.425 210.396C60.8746 205.065 58.9418 198.702 57.7142 191.969C55.257 178.494 55.6384 163.618 59.4719 152.665C61.1582 147.847 65.4637 144.268 71.2216 141.239C76.378 138.527 82.613 136.299 88.9994 134.016C89.7389 133.752 90.4805 133.487 91.2226 133.221C98.3517 130.66 105.528 127.957 111.353 124.379C117.182 120.799 121.718 116.306 123.481 110.137C124.536 106.445 123.333 102.458 121.138 98.2756C119.395 94.953 116.981 91.4273 114.458 87.7414C113.802 86.7826 113.138 85.8129 112.477 84.8331C106.028 75.2791 99.7845 64.7178 101.991 53.1948C102.719 49.3959 105.055 45.6413 108.599 42.1343C112.139 38.6302 116.858 35.3999 122.293 32.6497C133.164 27.1482 146.834 23.6008 159.5 23.6008C170.696 23.6008 184.567 25.9669 195.319 34.3083C206.04 42.6266 213.744 56.9549 212.501 81.0751C212.259 85.7656 214.684 90.1078 218.264 94.3991C220.833 97.4786 224.05 100.59 227.395 103.826C228.708 105.096 230.041 106.385 231.362 107.7C240.79 117.076 249.723 127.8 248.003 142.543Z" stroke="black"/>
    <circle cx="163" cy="76" r="1.5" stroke="black"/>
</svg>
